<svg width="40" height="46" viewBox="0 0 40 46" fill="none" xmlns="http://www.w3.org/2000/svg">
<g clip-path="url(#clip0_1_2)">
<path d="M36.764 29.9995V26.8145C37.5096 26.5802 38.1384 26.1172 38.5389 25.5076C38.9393 24.898 39.0856 24.1811 38.9516 23.4842C38.8177 22.7874 38.4123 22.1554 37.8072 21.7005C37.2022 21.2457 36.4367 20.9972 35.6464 20.9993C35.6472 20.6639 35.6135 20.3291 35.5458 19.9992C35.284 18.6013 34.4767 17.3317 33.2673 16.4162C32.0579 15.5006 30.5249 14.9985 28.9408 14.9991C28.5394 14.9962 28.1388 15.0297 27.745 15.0991C26.981 15.2191 26.2469 15.4595 25.5768 15.8091C25.5073 15.8421 25.4402 15.8788 25.3757 15.9191C25.1256 16.0611 24.8866 16.2181 24.6604 16.3891C23.5246 15.6271 22.1773 15.1581 20.7646 15.0329C19.3519 14.9077 17.9279 15.1312 16.6472 15.6791C16.2553 15.8409 15.8811 16.0351 15.5296 16.2591V7.44986L19.0724 6.49183L32.4344 5.95882C32.7308 5.94688 33.0098 5.83007 33.21 5.63409C33.4101 5.43811 33.5151 5.17901 33.5017 4.91378C33.4884 4.64856 33.3579 4.39894 33.1388 4.21984C32.9198 4.04073 32.6302 3.94682 32.3338 3.95876L27.7651 4.14176L32.1438 2.95772C32.4277 2.88107 32.6658 2.70668 32.8059 2.47291C32.946 2.23914 32.9766 1.96514 32.891 1.71119C32.8053 1.45723 32.6104 1.24413 32.3492 1.11876C32.0879 0.993388 31.7817 0.966017 31.4979 1.04267L18.6924 4.50577L6.32169 4.99879H5.4712C5.29551 5.00169 5.12327 5.04288 4.96939 5.11879C4.83112 5.16386 4.70467 5.23384 4.59785 5.32441C4.49103 5.41498 4.40613 5.52421 4.3484 5.64533C4.29068 5.76645 4.26135 5.89689 4.26224 6.02856C4.26314 6.16024 4.29423 6.29034 4.3536 6.41083V20.9993C3.56335 20.9972 2.79782 21.2457 2.19278 21.7005C1.58775 22.1554 1.18231 22.7874 1.04838 23.4842C0.914448 24.1811 1.06067 24.898 1.46113 25.5076C1.86158 26.1172 2.49038 26.5802 3.236 26.8145V29.9995C3.23967 32.5301 4.21662 34.9825 6.00271 36.9445C7.7888 38.9066 10.2752 40.2588 13.0441 40.7739L12.2103 43.757C12.169 43.9044 12.1659 44.0584 12.2011 44.2071C12.2362 44.3558 12.3088 44.4954 12.4134 44.6152C12.5179 44.735 12.6515 44.832 12.8042 44.8987C12.9569 44.9653 13.1245 45 13.2944 45H26.7056C26.8755 45 27.0431 44.9653 27.1958 44.8987C27.3485 44.832 27.4821 44.735 27.5866 44.6152C27.6912 44.4954 27.7638 44.3558 27.7989 44.2071C27.8341 44.0584 27.831 43.9044 27.7897 43.757L26.9559 40.7739C29.7248 40.2588 32.2112 38.9066 33.9973 36.9445C35.7834 34.9825 36.7603 32.5301 36.764 29.9995ZM26.7727 17.4992C27.0697 17.3535 27.3848 17.2394 27.7114 17.1592C28.1097 17.0501 28.5243 16.9962 28.9408 16.9992C29.9317 16.9984 30.8947 17.2929 31.6778 17.8361C32.4609 18.3794 33.0197 19.1404 33.2659 19.9992C33.3657 20.325 33.4146 20.6615 33.4112 20.9993H32.2936C32.296 20.6577 32.2278 20.3186 32.0924 19.9992C31.8619 19.4157 31.4352 18.9102 30.871 18.5521C30.3067 18.1941 29.6325 18.0009 28.9408 17.9992C28.3918 18.0012 27.8513 18.1212 27.365 18.3492C27.334 18.3696 27.3002 18.3864 27.2644 18.3992C27.1242 18.4744 26.9898 18.5579 26.8621 18.6492C26.8367 18.5972 26.8068 18.547 26.7727 18.4992C26.6184 18.2539 26.4428 18.0198 26.2474 17.7992C26.4156 17.6899 26.591 17.5897 26.7727 17.4992ZM30.0584 20.9993H27.8232C27.8232 20.734 27.941 20.4797 28.1505 20.2921C28.3601 20.1046 28.6444 19.9992 28.9408 19.9992C29.2372 19.9992 29.5215 20.1046 29.7311 20.2921C29.9407 20.4797 30.0584 20.734 30.0584 20.9993ZM14.8926 19.9592C14.9708 19.8009 15.0604 19.6472 15.1608 19.4992C15.172 19.4892 15.172 19.4792 15.1831 19.4692V19.4592C15.2857 19.3015 15.4015 19.1511 15.5296 19.0092C15.754 18.7338 16.0127 18.4822 16.3007 18.2592C16.4082 18.1643 16.5241 18.0774 16.6472 17.9992C16.7031 17.9692 16.7478 17.9292 16.8037 17.8992C17.7407 17.3117 18.8576 16.9974 20.0018 16.9992C21.1459 17.001 22.2616 17.3188 23.1963 17.9092C23.3734 18.0146 23.5415 18.1316 23.6993 18.2592C24.1393 18.6047 24.5164 19.0096 24.8169 19.4592V19.4692C24.828 19.4792 24.828 19.4892 24.8392 19.4992C24.9396 19.6472 25.0292 19.8009 25.1074 19.9592C25.2704 20.2935 25.394 20.6421 25.4762 20.9993H24.3251C24.2705 20.7957 24.1918 20.5979 24.0904 20.4093C23.8598 19.9126 23.513 19.4659 23.0734 19.0992C22.9547 18.9976 22.8276 18.904 22.6934 18.8192C21.9213 18.2876 20.9743 17.9993 20 17.9993C19.0257 17.9993 18.0788 18.2876 17.3066 18.8192C17.1724 18.904 17.0453 18.9976 16.9266 19.0992C16.8251 19.1783 16.7315 19.2653 16.6472 19.3592C16.335 19.6682 16.0854 20.0235 15.9096 20.4093C15.8082 20.5979 15.7295 20.7957 15.6749 20.9993H14.5238C14.606 20.6421 14.7296 20.2935 14.8926 19.9592ZM21.9335 20.9993H18.0666C18.263 20.6962 18.5451 20.4446 18.8844 20.2697C19.2237 20.0948 19.6084 20.0028 20 20.0028C20.3916 20.0028 20.7763 20.0948 21.1156 20.2697C21.4549 20.4446 21.737 20.6962 21.9335 20.9993ZM11.0592 8.6579L13.2944 8.05788V15.3391C12.9545 15.238 12.6072 15.1578 12.255 15.0991C11.8612 15.0297 11.4606 14.9962 11.0592 14.9991V8.6579ZM6.5888 6.99885H8.824V7.17185L6.5888 7.77187V6.99885ZM6.5888 9.86593L8.824 9.26592V15.3491C7.99244 15.5983 7.23024 16.0041 6.5888 16.5391V9.86593ZM6.73409 19.9992C6.98309 19.1418 7.54258 18.3823 8.32511 17.8395C9.10763 17.2967 10.0691 17.0012 11.0592 16.9992C11.4757 16.9962 11.8903 17.0501 12.2886 17.1592C12.6152 17.2394 12.9303 17.3535 13.2273 17.4992C13.2521 17.5089 13.2748 17.5225 13.2944 17.5392C13.45 17.6164 13.5994 17.7033 13.7414 17.7992C13.5759 17.9889 13.4264 18.1895 13.2944 18.3992C13.272 18.4292 13.2497 18.4692 13.2273 18.4992C13.1932 18.547 13.1633 18.5972 13.1379 18.6492C13.0102 18.5579 12.8758 18.4744 12.7356 18.3992C12.6998 18.3864 12.666 18.3696 12.635 18.3492C12.1487 18.1212 11.6082 18.0012 11.0592 17.9992C10.2333 17.9993 9.4368 18.2737 8.824 18.7692C8.40381 19.1006 8.08786 19.5247 7.90757 19.9992C7.77222 20.3186 7.70402 20.6577 7.7064 20.9993H6.5888C6.58539 20.6615 6.63428 20.325 6.73409 19.9992ZM12.1768 20.9993H9.9416C9.9416 20.734 10.0593 20.4797 10.2689 20.2921C10.4785 20.1046 10.7628 19.9992 11.0592 19.9992C11.3556 19.9992 11.6399 20.1046 11.8495 20.2921C12.0591 20.4797 12.1768 20.734 12.1768 20.9993ZM3.236 23.9994C3.236 23.7341 3.35374 23.4798 3.56333 23.2922C3.77293 23.1047 4.05719 22.9993 4.3536 22.9993H35.6464C35.9428 22.9993 36.2271 23.1047 36.4367 23.2922C36.6463 23.4798 36.764 23.7341 36.764 23.9994C36.764 24.2646 36.6463 24.519 36.4367 24.7065C36.2271 24.894 35.9428 24.9994 35.6464 24.9994H4.3536C4.05719 24.9994 3.77293 24.894 3.56333 24.7065C3.35374 24.519 3.236 24.2646 3.236 23.9994ZM14.726 42.9999L15.2848 40.9999H24.7152L25.274 42.9999H14.726ZM24.4704 38.9998H15.5296C12.8629 38.9972 10.3062 38.0481 8.4205 36.3608C6.53483 34.6735 5.47416 32.3858 5.4712 29.9995V26.9995H34.5288V29.9995C34.5258 32.3858 33.4652 34.6735 31.5795 36.3608C29.6938 38.0481 27.1372 38.9972 24.4704 38.9998Z" fill="black"/>
<path d="M3.236 23.9994C3.236 23.7341 3.35374 23.4798 3.56333 23.2922C3.77293 23.1047 4.05719 22.9993 4.3536 22.9993H35.6464C35.9428 22.9993 36.2271 23.1047 36.4367 23.2922C36.6463 23.4798 36.764 23.7341 36.764 23.9994C36.764 24.2646 36.6463 24.519 36.4367 24.7065C36.2271 24.894 35.9428 24.9994 35.6464 24.9994H4.3536C4.05719 24.9994 3.77293 24.894 3.56333 24.7065C3.35374 24.519 3.236 24.2646 3.236 23.9994Z" fill="#FC012A"/>
<path d="M24.4704 38.9998H15.5296C12.8629 38.9972 10.3062 38.0481 8.4205 36.3608C6.53483 34.6735 5.47416 32.3858 5.4712 29.9995V26.9995H34.5288V29.9995C34.5258 32.3858 33.4652 34.6735 31.5795 36.3608C29.6938 38.0481 27.1372 38.9972 24.4704 38.9998Z" fill="#FC012A"/>
<path d="M14.726 42.9999L15.2848 40.9999H24.7152L25.274 42.9999H14.726Z" fill="#FC012A"/>
<path d="M6.5888 9.86593L8.824 9.26592V15.3491C7.99244 15.5983 7.23024 16.0041 6.5888 16.5391V9.86593Z" fill="#FCEE0A"/>
<path d="M11.0592 8.6579L13.2944 8.05788V15.3391C12.9545 15.238 12.6072 15.1578 12.255 15.0991C11.8612 15.0297 11.4606 14.9962 11.0592 14.9991V8.6579Z" fill="#FCEE0A"/>
<path d="M6.73409 19.9992C6.98309 19.1418 7.54258 18.3823 8.32511 17.8395C9.10763 17.2967 10.0691 17.0012 11.0592 16.9992C11.4757 16.9962 11.8903 17.0501 12.2886 17.1592C12.6152 17.2394 12.9303 17.3535 13.2273 17.4992C13.2521 17.5089 13.2748 17.5225 13.2944 17.5392C13.45 17.6164 13.5994 17.7033 13.7414 17.7992C13.5759 17.9889 13.4264 18.1895 13.2944 18.3992C13.272 18.4292 13.2497 18.4692 13.2273 18.4992C13.1932 18.547 13.1633 18.5972 13.1379 18.6492C13.0102 18.5579 12.8758 18.4744 12.7356 18.3992C12.6998 18.3864 12.666 18.3696 12.635 18.3492C12.1487 18.1212 11.6082 18.0012 11.0592 17.9992C10.2333 17.9993 9.4368 18.2737 8.824 18.7692C8.40381 19.1006 8.08786 19.5247 7.90757 19.9992C7.77222 20.3186 7.70402 20.6577 7.7064 20.9993H6.5888C6.58539 20.6615 6.63428 20.325 6.73409 19.9992Z" fill="#FCEE0A"/>
<path d="M12.1768 20.9993H9.9416C9.9416 20.734 10.0593 20.4797 10.2689 20.2921C10.4785 20.1046 10.7628 19.9992 11.0592 19.9992C11.3556 19.9992 11.6399 20.1046 11.8495 20.2921C12.0591 20.4797 12.1768 20.734 12.1768 20.9993Z" fill="#FCEE0A"/>
<path d="M21.9335 20.9993H18.0666C18.263 20.6962 18.5451 20.4446 18.8844 20.2697C19.2237 20.0948 19.6084 20.0028 20 20.0028C20.3916 20.0028 20.7763 20.0948 21.1156 20.2697C21.4549 20.4446 21.737 20.6962 21.9335 20.9993Z" fill="#FCEE0A"/>
<path d="M14.8926 19.9592C14.9708 19.8009 15.0604 19.6472 15.1608 19.4992C15.172 19.4892 15.172 19.4792 15.1831 19.4692V19.4592C15.2857 19.3015 15.4015 19.1511 15.5296 19.0092C15.754 18.7338 16.0127 18.4822 16.3007 18.2592C16.4082 18.1643 16.5241 18.0774 16.6472 17.9992C16.7031 17.9692 16.7478 17.9292 16.8037 17.8992C17.7407 17.3117 18.8576 16.9974 20.0018 16.9992C21.1459 17.001 22.2616 17.3188 23.1963 17.9092C23.3734 18.0146 23.5415 18.1316 23.6993 18.2592C24.1393 18.6047 24.5164 19.0096 24.8169 19.4592V19.4692C24.828 19.4792 24.828 19.4892 24.8392 19.4992C24.9396 19.6472 25.0292 19.8009 25.1074 19.9592C25.2704 20.2935 25.394 20.6421 25.4762 20.9993H24.3251C24.2705 20.7957 24.1918 20.5979 24.0904 20.4093C23.8598 19.9126 23.513 19.4659 23.0734 19.0992C22.9547 18.9976 22.8276 18.904 22.6934 18.8192C21.9213 18.2876 20.9743 17.9993 20 17.9993C19.0257 17.9993 18.0788 18.2876 17.3066 18.8192C17.1724 18.904 17.0453 18.9976 16.9266 19.0992C16.8251 19.1783 16.7315 19.2653 16.6472 19.3592C16.335 19.6682 16.0854 20.0235 15.9096 20.4093C15.8082 20.5979 15.7295 20.7957 15.6749 20.9993H14.5238C14.606 20.6421 14.7296 20.2935 14.8926 19.9592Z" fill="#FCEE0A"/>
<path d="M26.7727 17.4992C27.0697 17.3535 27.3848 17.2394 27.7114 17.1592C28.1097 17.0501 28.5243 16.9962 28.9408 16.9992C29.9317 16.9984 30.8947 17.2929 31.6778 17.8361C32.4609 18.3794 33.0197 19.1404 33.2659 19.9992C33.3657 20.325 33.4146 20.6615 33.4112 20.9993H32.2936C32.296 20.6577 32.2278 20.3186 32.0924 19.9992C31.8619 19.4157 31.4352 18.9102 30.871 18.5521C30.3067 18.1941 29.6325 18.0009 28.9408 17.9992C28.3918 18.0012 27.8513 18.1212 27.365 18.3492C27.334 18.3696 27.3002 18.3864 27.2644 18.3992C27.1242 18.4744 26.9898 18.5579 26.8621 18.6492C26.8367 18.5972 26.8068 18.547 26.7727 18.4992C26.6184 18.2539 26.4428 18.0198 26.2474 17.7992C26.4156 17.6899 26.591 17.5897 26.7727 17.4992Z" fill="#FCEE0A"/>
<path d="M30.0584 20.9993H27.8232C27.8232 20.734 27.941 20.4797 28.1505 20.2921C28.3601 20.1046 28.6444 19.9992 28.9408 19.9992C29.2372 19.9992 29.5215 20.1046 29.7311 20.2921C29.9407 20.4797 30.0584 20.734 30.0584 20.9993Z" fill="#FCEE0A"/>
</g>
<defs>
<clipPath id="clip0_1_2">
<rect width="40" height="46" fill="white"/>
</clipPath>
</defs>
</svg>
